<svg xmlns="http://www.w3.org/2000/svg" width="1421.4" height="426.8"><defs><clipPath clipPathUnits="userSpaceOnUse" id="a"><path d="M0 320.1h1066V0H0z"/></clipPath></defs><g clip-path="url(#a)" transform="matrix(1.33333 0 0 -1.33333 0 426.8)"><path d="M701.7 75.8c-47 0-74.8 31.7-73.5 73 1.7 52.8 48.2 96.6 103.8 96.6a123 123 0 0055.5-12.7l-7.4-39a97.3 97.3 0 01-51.5 13.8 56.4 56.4 0 01-58.4-53.7c-.7-22.2 12.7-40.6 38.5-40.6 5.9 0 12.7.9 17.2 2l10.1 53.5h39.4L760.1 88a146.4 146.4 0 00-58.4-12.2M901 168.6l-78.5 46.8L801.8 106z" fill="#1899d6"/><path d="M310.9 134c9 0 18.8 7.7 18.8 20.1 0 8-5.3 13-12.4 13-9 0-19-8.2-19-20.6 0-8 5.3-12.6 12.6-12.6m6.7 52.1c20.4 0 35.2-12 35.2-30.4 0-24-21.2-40.6-42.3-40.6-20.5 0-35.2 11.8-35.2 30.4 0 23.9 21 40.6 42.3 40.6M401.7 165.4c2.9 0 5.6.6 7.7 2 4.4 3 7.2 8.3 7.2 14.5 0 5.6-3.2 9.1-9.5 9.1h-11.6l-5-25.6zm-25.5 45.4h36c5.5 0 10.3-1 14.4-3 8.8-4.1 13.7-12.8 13.7-23.8 0-15.8-9-29.2-21.6-35.2a34.1 34.1 0 00-14.5-3.1h-17.6l-5.6-29.2h-23zM468 132.5c6 0 12.4 6.4 13.5 12l.2 1.4h-2c-5 0-17.2-1-17.2-9 0-2.6 1.7-4.4 5.5-4.4m15.2 26.5h1l.2 2.5c0 4.4-3.2 6.2-8.6 6.2-8.6 0-19.6-6.2-19.6-6.2l-5 17.1s14 7.5 29 7.5c11.6 0 27-4.5 27-21.6 0-2-.3-4.2-.7-6.6l-7.9-41.2h-20.8l.8 4c.4 2.3 1.2 4.3 1.2 4.3h-.3s-7.4-10-20-10c-10.2 0-20 6.1-20 17.6 0 20.6 26.3 26.4 43.7 26.4M518.8 108c4 0 8.7 1.1 12.3 6.9l2 3.2-16 66.5h23.7l5.6-33.6c.6-3.7.6-10 .6-10h.3l4 9.6 15.2 34h25.6l-42.4-75.1c-8.5-14.9-20.2-20.4-29.7-20.4a35 35 0 00-17.8 5.2l9.9 15.9s2.8-2.2 6.7-2.2M223.7 114.5c-27.6 0-44 18.5-43.2 42.6 1 30.7 28.3 56.2 61 56.2 14 0 25-3.5 32.5-7.3l-4.3-22.8c-9.3 5-17.3 8-30.2 8a33 33 0 01-34.3-31.2c-.4-13 7.4-23.7 22.6-23.7 3.5 0 7.4.6 10.1 1.2l6 31.1h23l-8.9-47a86.6 86.6 0 00-34.3-7" fill="#2f4049"/></g></svg>